# xmcd
#
# Track frame offsets:
#	150
#	12286
#	24556
#	36054
#	48116
#	60383
#	75262
#	86265
#	102013
#	112534
#	124337
#	134848
#	146082
#	155712
#	168163
#
# Disc length: 2417 seconds
#
# Revision: 0
# Processed by: cddbd v1.5.2PL0 Copyright (c) Steve Scherf et al.
# Submitted via: audiograbber 1.83.01
#
DISCID=b0096f0f
DTITLE=Various Artist - The Soul Story: Volume 6 - Disc 2
DYEAR=2006
DGENRE=Soul
TTITLE0=Sam and Dave - You Don't Know Like I Know
TTITLE1=Aretha Franklin - Baby, I Love You
TTITLE2=Ray Charles - Hallelujah I Love Her So
TTITLE3=Solomon Burke - Tonight's The Night
TTITLE4=Otis Redding - Mr. Pitiful
TTITLE5=Percy Sledge - Warm And Tender Love
TTITLE6=Don Covay - Mercy, Mercy
TTITLE7=Lorraine Ellison - Stay With Me
TTITLE8=Jerry Butler - I'm A-Telling You
TTITLE9=Maxine Brown - Oh No, Not My Baby
TTITLE10=Chuck Jackson - I Don't Want To Cry
TTITLE11=Little Anthony and the Imperials - Goin' Out Of My Head
TTITLE12=Gene Allison - You Can Make It If You Try
TTITLE13=The Joe Jeffrey Group - My Pledge Of Love
TTITLE14=The Sweet Inspirations - Sweet Inspiration
EXTD=
EXTT0=
EXTT1=
EXTT2=
EXTT3=
EXTT4=
EXTT5=
EXTT6=
EXTT7=
EXTT8=
EXTT9=
EXTT10=
EXTT11=
EXTT12=
EXTT13=
EXTT14=
PLAYORDER=
